<?xml version="1.0" encoding="UTF-8"?>
<svg version="1.1" xmlns="http://www.w3.org/2000/svg" width="100" height="100">
<path d="M0 0 C1.90217285 -0.00945648 1.90217285 -0.00945648 3.84277344 -0.019104 C5.22330871 -0.0155241 6.60384271 -0.01142211 7.984375 -0.00683594 C9.40397203 -0.00818375 10.82356861 -0.01012525 12.24316406 -0.01263428 C15.21553958 -0.01558009 18.18779474 -0.01130542 21.16015625 -0.00195312 C24.96667055 0.00944119 28.77290279 0.0028788 32.57940674 -0.00909805 C35.50994993 -0.01633135 38.44042646 -0.01402199 41.37097168 -0.00884247 C42.77437371 -0.00751003 44.17778184 -0.00913946 45.58117676 -0.01380157 C47.54369997 -0.01889065 49.50624445 -0.00975642 51.46875 0 C52.58475586 0.00159119 53.70076172 0.00318237 54.85058594 0.00482178 C57.75811133 0.26087945 59.36784634 0.57430397 61.734375 2.25878906 C64.06905708 5.53877773 63.98754234 8.58152204 63.99316406 12.52441406 C63.99946838 13.7925293 64.00577271 15.06064453 64.01226807 16.3671875 C64.00868816 17.74772277 64.00458617 19.12825677 64 20.50878906 C64.00134781 21.92838609 64.00328931 23.34798267 64.00579834 24.76757812 C64.00874416 27.73995365 64.00446948 30.7122088 63.99511719 33.68457031 C63.98372287 37.49108461 63.99028526 41.29731685 64.00226212 45.1038208 C64.00949541 48.03436399 64.00718605 50.96484052 64.00200653 53.89538574 C64.0006741 55.29878778 64.00230352 56.7021959 64.00696564 58.10559082 C64.01205471 60.06811403 64.00292048 62.03065851 63.99316406 63.99316406 C63.99157288 65.10916992 63.98998169 66.22517578 63.98834229 67.375 C63.73228461 70.28252539 63.4188601 71.89226041 61.734375 74.25878906 C58.45438633 76.59347114 55.41164202 76.5119564 51.46875 76.51757812 C50.20063477 76.52388245 48.93251953 76.53018677 47.62597656 76.53668213 C46.24544129 76.53310222 44.86490729 76.52900023 43.484375 76.52441406 C42.06477797 76.52576187 40.64518139 76.52770337 39.22558594 76.5302124 C36.25321042 76.53315822 33.28095526 76.52888354 30.30859375 76.51953125 C26.50207945 76.50813694 22.69584721 76.51469932 18.88934326 76.52667618 C15.95880007 76.53390947 13.02832354 76.53160011 10.09777832 76.52642059 C8.69437629 76.52508816 7.29096816 76.52671758 5.88757324 76.5313797 C3.92505003 76.53646878 1.96250555 76.52733455 0 76.51757812 C-1.67400879 76.51519135 -1.67400879 76.51519135 -3.38183594 76.51275635 C-6.28936133 76.25669867 -7.89909634 75.94327416 -10.265625 74.25878906 C-12.60030708 70.97880039 -12.51879234 67.93605608 -12.52441406 63.99316406 C-12.53071838 62.72504883 -12.53702271 61.45693359 -12.54351807 60.15039062 C-12.53993816 58.76985536 -12.53583617 57.38932136 -12.53125 56.00878906 C-12.53259781 54.58919203 -12.53453931 53.16959545 -12.53704834 51.75 C-12.53999416 48.77762448 -12.53571948 45.80536932 -12.52636719 42.83300781 C-12.51497287 39.02649352 -12.52153526 35.22026128 -12.53351212 31.41375732 C-12.54074541 28.48321413 -12.53843605 25.5527376 -12.53325653 22.62219238 C-12.5319241 21.21879035 -12.53355352 19.81538223 -12.53821564 18.4119873 C-12.54330471 16.4494641 -12.53417048 14.48691962 -12.52441406 12.52441406 C-12.52282288 11.4084082 -12.52123169 10.29240234 -12.51959229 9.14257812 C-12.26353461 6.23505274 -11.9501101 4.62531772 -10.265625 2.25878906 C-6.98563633 -0.07589301 -3.94289202 0.00562172 0 0 Z M-3.265625 9.25878906 C-3.265625 11.89878906 -3.265625 14.53878906 -3.265625 17.25878906 C15.874375 17.25878906 35.014375 17.25878906 54.734375 17.25878906 C54.734375 14.61878906 54.734375 11.97878906 54.734375 9.25878906 C35.594375 9.25878906 16.454375 9.25878906 -3.265625 9.25878906 Z M-3.265625 26.25878906 C-3.265625 39.78878906 -3.265625 53.31878906 -3.265625 67.25878906 C5.644375 67.25878906 14.554375 67.25878906 23.734375 67.25878906 C19.54127277 63.05055738 19.54127277 63.05055738 16.734375 63.25878906 C16.074375 59.95878906 15.414375 56.65878906 14.734375 53.25878906 C17.374375 53.25878906 20.014375 53.25878906 22.734375 53.25878906 C23.064375 54.90878906 23.394375 56.55878906 23.734375 58.25878906 C25.054375 58.58878906 26.374375 58.91878906 27.734375 59.25878906 C28.064375 57.27878906 28.394375 55.29878906 28.734375 53.25878906 C26.2432783 51.19473751 23.87691123 49.33834417 21.046875 47.75878906 C18.38195368 46.03019145 17.63471671 45.28721117 16.734375 42.25878906 C16.32287764 38.01248653 16.00524856 33.76766592 18.734375 30.25878906 C20.36933207 29.20774523 22.03321124 28.19890588 23.734375 27.25878906 C23.734375 26.92878906 23.734375 26.59878906 23.734375 26.25878906 C14.824375 26.25878906 5.914375 26.25878906 -3.265625 26.25878906 Z M28.734375 26.25878906 C31.40269085 29.06221812 31.40269085 29.06221812 33.296875 30.44628906 C35.61401363 33.36789864 35.96306755 36.6395772 36.734375 40.25878906 C34.094375 40.25878906 31.454375 40.25878906 28.734375 40.25878906 C28.404375 38.27878906 28.074375 36.29878906 27.734375 34.25878906 C26.744375 34.25878906 25.754375 34.25878906 24.734375 34.25878906 C23.78417084 36.49862407 23.78417084 36.49862407 23.734375 39.25878906 C26.84900104 43.12847596 30.61988535 45.54696634 34.734375 48.25878906 C35.95414829 50.69833564 35.93591313 52.41184755 35.984375 55.13378906 C36.02304687 56.42929688 36.02304687 56.42929688 36.0625 57.75097656 C35.66972143 60.75292706 34.76830996 62.05331742 32.734375 64.25878906 C30.546875 65.50878906 30.546875 65.50878906 28.734375 66.25878906 C28.734375 66.58878906 28.734375 66.91878906 28.734375 67.25878906 C37.314375 67.25878906 45.894375 67.25878906 54.734375 67.25878906 C54.734375 53.72878906 54.734375 40.19878906 54.734375 26.25878906 C46.154375 26.25878906 37.574375 26.25878906 28.734375 26.25878906 Z " fill="#000000" transform="translate(24.265625,11.7412109375)"/>
</svg>
